<svg width="55" height="53" viewBox="0 0 55 53" fill="none" xmlns="http://www.w3.org/2000/svg">
<path d="M24.4338 2.78114C25.3319 0.0172105 29.2421 0.0172195 30.1401 2.78115L34.4714 16.1115C34.8731 17.3475 36.0249 18.1844 37.3246 18.1844L51.3409 18.1844C54.2471 18.1844 55.4554 21.9033 53.1043 23.6115L41.7648 31.85C40.7134 32.614 40.2734 33.9681 40.675 35.2041L45.0063 48.5345C45.9044 51.2984 42.7409 53.5967 40.3898 51.8885L29.0503 43.65C27.9989 42.886 26.5751 42.886 25.5236 43.65L14.1842 51.8886C11.833 53.5968 8.66961 51.2984 9.56767 48.5344L13.8989 35.2041C14.3006 33.9681 13.8606 32.614 12.8091 31.85L1.46969 23.6115C-0.881454 21.9032 0.32688 18.1844 3.23305 18.1844L17.2494 18.1844C18.549 18.1844 19.7009 17.3475 20.1025 16.1115L24.4338 2.78114Z" fill="#03FD39"/>
</svg>
