<svg width="55" height="55" viewBox="0 0 55 55" fill="none" xmlns="http://www.w3.org/2000/svg">
<path d="M5.94045 9.97543C4.62108 7.38601 7.38603 4.62107 9.97544 5.94045L22.4641 12.3037C23.6221 12.8938 25.0283 12.671 25.9474 11.752L35.8584 1.84098C37.9134 -0.213989 41.3974 1.56122 40.9428 4.43162L38.7501 18.2754C38.5468 19.559 39.1932 20.8276 40.3512 21.4177L52.8399 27.781C55.4293 29.1003 54.8176 32.9624 51.9472 33.417L38.1034 35.6097C36.8198 35.813 35.813 36.8198 35.6097 38.1034L33.417 51.9472C32.9624 54.8176 29.1003 55.4293 27.781 52.8399L21.4177 40.3512C20.8277 39.1932 19.559 38.5468 18.2754 38.7501L4.43161 40.9428C1.56122 41.3974 -0.213975 37.9134 1.841 35.8584L11.752 25.9474C12.671 25.0283 12.8938 23.6221 12.3037 22.4641L5.94045 9.97543Z" fill="#FF003D"/>
</svg>
